<svg version="1.1" xmlns="http://www.w3.org/2000/svg" xmlns:xlink="http://www.w3.org/1999/xlink" width="700" height="350"><defs><clipPath id="GdKTGRwUTKiV"><path fill="none" stroke="none" d="M 38.5 5.5 L 695.5 5.5 L 695.5 194.5 L 38.5 194.5 L 38.5 5.5"/></clipPath><clipPath id="GbpMDLQvyTkk"><path fill="none" stroke="none" d="M 38.5 5.5 L 695.5 5.5 L 695.5 194.5 L 38.5 194.5 L 38.5 5.5"/></clipPath><clipPath id="EwLgIOrzOvzL"><path fill="none" stroke="none" d="M 38.5 5.5 L 695.5 5.5 L 695.5 194.5 L 38.5 194.5 L 38.5 5.5"/></clipPath><clipPath id="hOrvMFvBRonx"><path fill="none" stroke="none" d="M 38.5 5.5 L 695.5 5.5 L 695.5 194.5 L 38.5 194.5 L 38.5 5.5"/></clipPath></defs><path fill="rgb(255,255,255)" stroke="none" paint-order="stroke" d="M 0.5 0.5 L 700.5 0.5 L 700.5 350.5 L 0.5 350.5 L 0.5 0.5" fill-opacity="1"/><rect fill="#FFFFFF" stroke="none" x="38" y="5" width="657" height="189" transform="matrix(1, 0, 0, 1, 0.5, 0.5)"/><path fill="rgb(255,255,255)" stroke="none" paint-order="stroke" d="M 38.5 5.5 L 695.5 5.5 L 695.5 194.5 L 38.5 194.5 L 38.5 5.5" fill-opacity="1"/><path fill="none" stroke="rgb(229,229,229)" paint-order="fill" d="M 38.5 5.5 L 695.5 5.5 L 695.5 194.5 L 38.5 194.5 L 38.5 5.5" stroke-opacity="1" stroke-linejoin="bevel" stroke-miterlimit="10" stroke-dasharray=""/><path fill="none" stroke="rgb(229,229,229)" paint-order="fill" d="M 38.5 163.5 L 695.5 163.5 M 38.5 131.5 L 695.5 131.5 M 38.5 100.5 L 695.5 100.5 M 38.5 68.5 L 695.5 68.5 M 38.5 37.5 L 695.5 37.5" stroke-opacity="1" stroke-linejoin="bevel" stroke-miterlimit="10" stroke-dasharray="" clip-path="url(#GbpMDLQvyTkk)"/><path fill="none" stroke="none"/><path fill="rgb(153,213,148)" stroke="none" paint-order="stroke" d="M 70.89445495605469 51.90999984741211 L 116.44915771484375 51.90999984741211 L 116.44915771484375 194.5 L 70.89445495605469 194.5 L 70.89445495605469 51.90999984741211" fill-opacity="1" clip-path="url(#EwLgIOrzOvzL)"/><path fill="none" stroke="rgb(255,255,255)" paint-order="fill" d="M 70.89445495605469 51.90999984741211 L 116.44915771484375 51.90999984741211 L 116.44915771484375 194.5 L 70.89445495605469 194.5 L 70.89445495605469 51.90999984741211" stroke-opacity="1" stroke-linejoin="bevel" stroke-miterlimit="10" stroke-dasharray="" clip-path="url(#EwLgIOrzOvzL)"/><path fill="rgb(255,255,191)" stroke="none" paint-order="stroke" d="M 121.51078033447266 80.47000122070312 L 167.0654754638672 80.47000122070312 L 167.0654754638672 194.5 L 121.51078033447266 194.5 L 121.51078033447266 80.47000122070312" fill-opacity="1" clip-path="url(#EwLgIOrzOvzL)"/><path fill="none" stroke="rgb(255,255,255)" paint-order="fill" d="M 121.51078033447266 80.47000122070312 L 167.0654754638672 80.47000122070312 L 167.0654754638672 194.5 L 121.51078033447266 194.5 L 121.51078033447266 80.47000122070312" stroke-opacity="1" stroke-linejoin="bevel" stroke-miterlimit="10" stroke-dasharray="" clip-path="url(#EwLgIOrzOvzL)"/><path fill="rgb(252,141,89)" stroke="none" paint-order="stroke" d="M 172.1271209716797 73.12000274658203 L 217.6818084716797 73.12000274658203 L 217.6818084716797 194.5 L 172.1271209716797 194.5 L 172.1271209716797 73.12000274658203" fill-opacity="1" clip-path="url(#EwLgIOrzOvzL)"/><path fill="none" stroke="rgb(255,255,255)" paint-order="fill" d="M 172.1271209716797 73.12000274658203 L 217.6818084716797 73.12000274658203 L 217.6818084716797 194.5 L 172.1271209716797 194.5 L 172.1271209716797 73.12000274658203" stroke-opacity="1" stroke-linejoin="bevel" stroke-miterlimit="10" stroke-dasharray="" clip-path="url(#EwLgIOrzOvzL)"/><path fill="rgb(153,213,148)" stroke="none" paint-order="stroke" d="M 293.6063232421875 50.02000045776367 L 339.1610107421875 50.02000045776367 L 339.1610107421875 194.5 L 293.6063232421875 194.5 L 293.6063232421875 50.02000045776367" fill-opacity="1" clip-path="url(#EwLgIOrzOvzL)"/><path fill="none" stroke="rgb(255,255,255)" paint-order="fill" d="M 293.6063232421875 50.02000045776367 L 339.1610107421875 50.02000045776367 L 339.1610107421875 194.5 L 293.6063232421875 194.5 L 293.6063232421875 50.02000045776367" stroke-opacity="1" stroke-linejoin="bevel" stroke-miterlimit="10" stroke-dasharray="" clip-path="url(#EwLgIOrzOvzL)"/><path fill="rgb(255,255,191)" stroke="none" paint-order="stroke" d="M 344.22265625 71.0199966430664 L 389.77734375 71.0199966430664 L 389.77734375 194.5 L 344.22265625 194.5 L 344.22265625 71.0199966430664" fill-opacity="1" clip-path="url(#EwLgIOrzOvzL)"/><path fill="none" stroke="rgb(255,255,255)" paint-order="fill" d="M 344.22265625 71.0199966430664 L 389.77734375 71.0199966430664 L 389.77734375 194.5 L 344.22265625 194.5 L 344.22265625 71.0199966430664" stroke-opacity="1" stroke-linejoin="bevel" stroke-miterlimit="10" stroke-dasharray="" clip-path="url(#EwLgIOrzOvzL)"/><path fill="rgb(252,141,89)" stroke="none" paint-order="stroke" d="M 394.8389892578125 84.45999908447266 L 440.3936767578125 84.45999908447266 L 440.3936767578125 194.5 L 394.8389892578125 194.5 L 394.8389892578125 84.45999908447266" fill-opacity="1" clip-path="url(#EwLgIOrzOvzL)"/><path fill="none" stroke="rgb(255,255,255)" paint-order="fill" d="M 394.8389892578125 84.45999908447266 L 440.3936767578125 84.45999908447266 L 440.3936767578125 194.5 L 394.8389892578125 194.5 L 394.8389892578125 84.45999908447266" stroke-opacity="1" stroke-linejoin="bevel" stroke-miterlimit="10" stroke-dasharray="" clip-path="url(#EwLgIOrzOvzL)"/><path fill="rgb(153,213,148)" stroke="none" paint-order="stroke" d="M 516.3181762695312 47.91999816894531 L 561.8728637695312 47.91999816894531 L 561.8728637695312 194.5 L 516.3181762695312 194.5 L 516.3181762695312 47.91999816894531" fill-opacity="1" clip-path="url(#EwLgIOrzOvzL)"/><path fill="none" stroke="rgb(255,255,255)" paint-order="fill" d="M 516.3181762695312 47.91999816894531 L 561.8728637695312 47.91999816894531 L 561.8728637695312 194.5 L 516.3181762695312 194.5 L 516.3181762695312 47.91999816894531" stroke-opacity="1" stroke-linejoin="bevel" stroke-miterlimit="10" stroke-dasharray="" clip-path="url(#EwLgIOrzOvzL)"/><path fill="rgb(255,255,191)" stroke="none" paint-order="stroke" d="M 566.9345092773438 53.380001068115234 L 612.4891967773438 53.380001068115234 L 612.4891967773438 194.5 L 566.9345092773438 194.5 L 566.9345092773438 53.380001068115234" fill-opacity="1" clip-path="url(#EwLgIOrzOvzL)"/><path fill="none" stroke="rgb(255,255,255)" paint-order="fill" d="M 566.9345092773438 53.380001068115234 L 612.4891967773438 53.380001068115234 L 612.4891967773438 194.5 L 566.9345092773438 194.5 L 566.9345092773438 53.380001068115234" stroke-opacity="1" stroke-linejoin="bevel" stroke-miterlimit="10" stroke-dasharray="" clip-path="url(#EwLgIOrzOvzL)"/><path fill="rgb(252,141,89)" stroke="none" paint-order="stroke" d="M 617.5508422851562 104.19999694824219 L 663.1055297851562 104.19999694824219 L 663.1055297851562 194.5 L 617.5508422851562 194.5 L 617.5508422851562 104.19999694824219" fill-opacity="1" clip-path="url(#EwLgIOrzOvzL)"/><path fill="none" stroke="rgb(255,255,255)" paint-order="fill" d="M 617.5508422851562 104.19999694824219 L 663.1055297851562 104.19999694824219 L 663.1055297851562 194.5 L 617.5508422851562 194.5 L 617.5508422851562 104.19999694824219" stroke-opacity="1" stroke-linejoin="bevel" stroke-miterlimit="10" stroke-dasharray="" clip-path="url(#EwLgIOrzOvzL)"/><path fill="none" stroke="rgb(0,0,0)" paint-order="fill" d="M 38.5 194.5 L 695.5 194.5" stroke-opacity="1" stroke-linejoin="bevel" stroke-miterlimit="10" stroke-dasharray=""/><path fill="none" stroke="rgb(0,0,0)" paint-order="fill" d="M 93.5 200.5 L 93.5 192.5 M 144.5 200.5 L 144.5 192.5 M 194.5 200.5 L 194.5 192.5 M 316.5 200.5 L 316.5 192.5 M 367.5 200.5 L 367.5 192.5 M 417.5 200.5 L 417.5 192.5 M 539.5 200.5 L 539.5 192.5 M 589.5 200.5 L 589.5 192.5 M 640.5 200.5 L 640.5 192.5" stroke-opacity="1" stroke-linejoin="bevel" stroke-miterlimit="10" stroke-dasharray=""/><path fill="none" stroke="rgb(0,0,0)" paint-order="fill" d="" stroke-opacity="1" stroke-linejoin="bevel" stroke-miterlimit="10" stroke-dasharray=""/><text fill="rgb(68,68,68)" stroke="none" font-family="helvetica" font-size="15px" font-style="normal" font-weight="normal" text-decoration="normal" x="-10.411529541015625" y="210" text-anchor="start" dominant-baseline="alphabetic" transform="matrix(0.5403023058681398, -0.8414709848078965, 0.8414709848078965, 0.5403023058681398, -129.17068735511253, 173.13939893045242)" fill-opacity="1">Attention_ViT</text><text fill="rgb(68,68,68)" stroke="none" font-family="helvetica" font-size="15px" font-style="normal" font-weight="normal" text-decoration="normal" x="17.63813018798828" y="210" text-anchor="start" dominant-baseline="alphabetic" transform="matrix(0.5403023058681398, -0.8414709848078965, 0.8414709848078965, 0.5403023058681398, -105.90247929322584, 215.7315680939867)" fill-opacity="1">DTD_ResNet152</text><text fill="rgb(68,68,68)" stroke="none" font-family="helvetica" font-size="15px" font-style="normal" font-weight="normal" text-decoration="normal" x="130.17113494873047" y="210" text-anchor="start" dominant-baseline="alphabetic" transform="matrix(0.5403023058681398, -0.8414709848078965, 0.8414709848078965, 0.5403023058681398, -82.63426772412407, 258.3237436774351)" fill-opacity="1">LRP_ViT</text><text fill="rgb(68,68,68)" stroke="none" font-family="helvetica" font-size="15px" font-style="normal" font-weight="normal" text-decoration="normal" x="212.30033111572266" y="210" text-anchor="start" dominant-baseline="alphabetic" transform="matrix(0.5403023058681398, -0.8414709848078965, 0.8414709848078965, 0.5403023058681398, -26.790558555393773, 360.544967645677)" fill-opacity="1">Attention_ViT</text><text fill="rgb(68,68,68)" stroke="none" font-family="helvetica" font-size="15px" font-style="normal" font-weight="normal" text-decoration="normal" x="240.3499984741211" y="210" text-anchor="start" dominant-baseline="alphabetic" transform="matrix(0.5403023058681398, -0.8414709848078965, 0.8414709848078965, 0.5403023058681398, -3.522346986292007, 403.1371432291254)" fill-opacity="1">DTD_ResNet152</text><text fill="rgb(68,68,68)" stroke="none" font-family="helvetica" font-size="15px" font-style="normal" font-weight="normal" text-decoration="normal" x="352.8830032348633" y="210" text-anchor="start" dominant-baseline="alphabetic" transform="matrix(0.5403023058681398, -0.8414709848078965, 0.8414709848078965, 0.5403023058681398, 19.74586458280976, 445.72931881257387)" fill-opacity="1">LRP_ViT</text><text fill="rgb(68,68,68)" stroke="none" font-family="helvetica" font-size="15px" font-style="normal" font-weight="normal" text-decoration="normal" x="435.0121841430664" y="210" text-anchor="start" dominant-baseline="alphabetic" transform="matrix(0.5403023058681398, -0.8414709848078965, 0.8414709848078965, 0.5403023058681398, 75.58956673710986, 547.9505299409875)" fill-opacity="1">Attention_ViT</text><text fill="rgb(68,68,68)" stroke="none" font-family="helvetica" font-size="15px" font-style="normal" font-weight="normal" text-decoration="normal" x="463.06185150146484" y="210" text-anchor="start" dominant-baseline="alphabetic" transform="matrix(0.5403023058681398, -0.8414709848078965, 0.8414709848078965, 0.5403023058681398, 98.85777830621169, 590.5427055244359)" fill-opacity="1">DTD_ResNet152</text><text fill="rgb(68,68,68)" stroke="none" font-family="helvetica" font-size="15px" font-style="normal" font-weight="normal" text-decoration="normal" x="575.594856262207" y="210" text-anchor="start" dominant-baseline="alphabetic" transform="matrix(0.5403023058681398, -0.8414709848078965, 0.8414709848078965, 0.5403023058681398, 122.1259898753134, 633.1348811078842)" fill-opacity="1">LRP_ViT</text><text fill="rgb(128,128,128)" stroke="none" font-family="helvetica" font-size="15px" font-style="normal" font-weight="bold" text-decoration="normal" x="106.52146530151367" y="342.8770075231255" text-anchor="start" dominant-baseline="alphabetic" transform="matrix(1, 0, 0, 1, 0.5, 0.5)" fill-opacity="1">DRUSEN</text><text fill="rgb(128,128,128)" stroke="none" font-family="helvetica" font-size="15px" font-style="normal" font-weight="bold" text-decoration="normal" x="347.8583335876465" y="342.8770075231255" text-anchor="start" dominant-baseline="alphabetic" transform="matrix(1, 0, 0, 1, 0.5, 0.5)" fill-opacity="1">CNV</text><text fill="rgb(128,128,128)" stroke="none" font-family="helvetica" font-size="15px" font-style="normal" font-weight="bold" text-decoration="normal" x="568.6951866149902" y="342.8770075231255" text-anchor="start" dominant-baseline="alphabetic" transform="matrix(1, 0, 0, 1, 0.5, 0.5)" fill-opacity="1">DME</text><path fill="none" stroke="rgb(211,211,211)" paint-order="fill" d="M 255.5 338.5 L 255.5 197.5 M 478.5 338.5 L 478.5 197.5" stroke-opacity="1" stroke-linejoin="bevel" stroke-miterlimit="10" stroke-width="2" stroke-dasharray=""/><path fill="none" stroke="rgb(0,0,0)" paint-order="fill" d="M 38.5 194.5 L 38.5 5.5" stroke-opacity="1" stroke-linejoin="bevel" stroke-miterlimit="10" stroke-dasharray=""/><path fill="none" stroke="rgb(0,0,0)" paint-order="fill" d="M 32.5 194.5 L 40.5 194.5 M 32.5 163.5 L 40.5 163.5 M 32.5 131.5 L 40.5 131.5 M 32.5 100.5 L 40.5 100.5 M 32.5 68.5 L 40.5 68.5 M 32.5 37.5 L 40.5 37.5 M 32.5 5.5 L 40.5 5.5" stroke-opacity="1" stroke-linejoin="bevel" stroke-miterlimit="10" stroke-dasharray=""/><path fill="none" stroke="rgb(0,0,0)" paint-order="fill" d="M 34.5 194.5 L 38.5 194.5 M 34.5 188.5 L 38.5 188.5 M 34.5 181.5 L 38.5 181.5 M 34.5 175.5 L 38.5 175.5 M 34.5 169.5 L 38.5 169.5 M 34.5 163.5 L 38.5 163.5 M 34.5 156.5 L 38.5 156.5 M 34.5 150.5 L 38.5 150.5 M 34.5 144.5 L 38.5 144.5 M 34.5 137.5 L 38.5 137.5 M 34.5 131.5 L 38.5 131.5 M 34.5 125.5 L 38.5 125.5 M 34.5 118.5 L 38.5 118.5 M 34.5 112.5 L 38.5 112.5 M 34.5 106.5 L 38.5 106.5 M 34.5 100.5 L 38.5 100.5 M 34.5 93.5 L 38.5 93.5 M 34.5 87.5 L 38.5 87.5 M 34.5 81.5 L 38.5 81.5 M 34.5 74.5 L 38.5 74.5 M 34.5 68.5 L 38.5 68.5 M 34.5 62.5 L 38.5 62.5 M 34.5 55.5 L 38.5 55.5 M 34.5 49.5 L 38.5 49.5 M 34.5 43.5 L 38.5 43.5 M 34.5 37.5 L 38.5 37.5 M 34.5 30.5 L 38.5 30.5 M 34.5 24.5 L 38.5 24.5 M 34.5 18.5 L 38.5 18.5 M 34.5 11.5 L 38.5 11.5 M 34.5 5.5 L 38.5 5.5" stroke-opacity="1" stroke-linejoin="bevel" stroke-miterlimit="10" stroke-dasharray=""/><text fill="rgb(68,68,68)" stroke="none" font-family="helvetica" font-size="15px" font-style="normal" font-weight="normal" text-decoration="normal" x="17.449999809265137" y="199.5" text-anchor="start" dominant-baseline="alphabetic" transform="matrix(1, 0, 0, 1, 0.5, 0.5)" fill-opacity="1">0</text><text fill="rgb(68,68,68)" stroke="none" font-family="helvetica" font-size="15px" font-style="normal" font-weight="normal" text-decoration="normal" x="3.133333206176758" y="168" text-anchor="start" dominant-baseline="alphabetic" transform="matrix(1, 0, 0, 1, 0.5, 0.5)" fill-opacity="1">0.5</text><text fill="rgb(68,68,68)" stroke="none" font-family="helvetica" font-size="15px" font-style="normal" font-weight="normal" text-decoration="normal" x="17.449999809265137" y="136.5" text-anchor="start" dominant-baseline="alphabetic" transform="matrix(1, 0, 0, 1, 0.5, 0.5)" fill-opacity="1">1</text><text fill="rgb(68,68,68)" stroke="none" font-family="helvetica" font-size="15px" font-style="normal" font-weight="normal" text-decoration="normal" x="3.133333206176758" y="105" text-anchor="start" dominant-baseline="alphabetic" transform="matrix(1, 0, 0, 1, 0.5, 0.5)" fill-opacity="1">1.5</text><text fill="rgb(68,68,68)" stroke="none" font-family="helvetica" font-size="15px" font-style="normal" font-weight="normal" text-decoration="normal" x="17.449999809265137" y="73.5" text-anchor="start" dominant-baseline="alphabetic" transform="matrix(1, 0, 0, 1, 0.5, 0.5)" fill-opacity="1">2</text><text fill="rgb(68,68,68)" stroke="none" font-family="helvetica" font-size="15px" font-style="normal" font-weight="normal" text-decoration="normal" x="3.133333206176758" y="42" text-anchor="start" dominant-baseline="alphabetic" transform="matrix(1, 0, 0, 1, 0.5, 0.5)" fill-opacity="1">2.5</text><text fill="rgb(68,68,68)" stroke="none" font-family="helvetica" font-size="15px" font-style="normal" font-weight="normal" text-decoration="normal" x="17.449999809265137" y="11" text-anchor="start" dominant-baseline="alphabetic" transform="matrix(1, 0, 0, 1, 0.5, 0.5)" fill-opacity="1">3</text><path fill="none" stroke="rgb(0,0,0)" paint-order="fill" d="M 93.67180633544922 73.1889419555664 L 93.67180633544922 30.631057739257812" stroke-opacity="1" stroke-linejoin="bevel" stroke-miterlimit="10" stroke-dasharray="" clip-path="url(#hOrvMFvBRonx)"/><path fill="none" stroke="rgb(0,0,0)" paint-order="fill" d="M 144.2881317138672 101.4835205078125 L 144.2881317138672 59.45648193359375" stroke-opacity="1" stroke-linejoin="bevel" stroke-miterlimit="10" stroke-dasharray="" clip-path="url(#hOrvMFvBRonx)"/><path fill="none" stroke="rgb(0,0,0)" paint-order="fill" d="M 194.9044647216797 91.06488800048828 L 194.9044647216797 55.17510986328125" stroke-opacity="1" stroke-linejoin="bevel" stroke-miterlimit="10" stroke-dasharray="" clip-path="url(#hOrvMFvBRonx)"/><path fill="none" stroke="rgb(0,0,0)" paint-order="fill" d="M 316.3836669921875 71.50648498535156 L 316.3836669921875 28.53351402282715" stroke-opacity="1" stroke-linejoin="bevel" stroke-miterlimit="10" stroke-dasharray="" clip-path="url(#hOrvMFvBRonx)"/><path fill="none" stroke="rgb(0,0,0)" paint-order="fill" d="M 367 89.55709075927734 L 367 52.48291015625" stroke-opacity="1" stroke-linejoin="bevel" stroke-miterlimit="10" stroke-dasharray="" clip-path="url(#hOrvMFvBRonx)"/><path fill="none" stroke="rgb(0,0,0)" paint-order="fill" d="M 417.6163330078125 105.19960021972656 L 417.6163330078125 63.720401763916016" stroke-opacity="1" stroke-linejoin="bevel" stroke-miterlimit="10" stroke-dasharray="" clip-path="url(#hOrvMFvBRonx)"/><path fill="none" stroke="rgb(0,0,0)" paint-order="fill" d="M 539.0955200195312 67.32011413574219 L 539.0955200195312 28.519882202148438" stroke-opacity="1" stroke-linejoin="bevel" stroke-miterlimit="10" stroke-dasharray="" clip-path="url(#hOrvMFvBRonx)"/><path fill="none" stroke="rgb(0,0,0)" paint-order="fill" d="M 589.7118530273438 71.965087890625 L 589.7118530273438 34.79491424560547" stroke-opacity="1" stroke-linejoin="bevel" stroke-miterlimit="10" stroke-dasharray="" clip-path="url(#hOrvMFvBRonx)"/><path fill="none" stroke="rgb(0,0,0)" paint-order="fill" d="M 640.3281860351562 125.33216094970703 L 640.3281860351562 83.06784057617188" stroke-opacity="1" stroke-linejoin="bevel" stroke-miterlimit="10" stroke-dasharray="" clip-path="url(#hOrvMFvBRonx)"/><path fill="none" stroke="rgb(0,0,0)" paint-order="fill" d="M 88.67180633544922 73.1889419555664 L 98.67180633544922 73.1889419555664" stroke-opacity="1" stroke-linejoin="bevel" stroke-miterlimit="10" stroke-dasharray="" clip-path="url(#hOrvMFvBRonx)"/><path fill="none" stroke="rgb(0,0,0)" paint-order="fill" d="M 139.2881317138672 101.4835205078125 L 149.2881317138672 101.4835205078125" stroke-opacity="1" stroke-linejoin="bevel" stroke-miterlimit="10" stroke-dasharray="" clip-path="url(#hOrvMFvBRonx)"/><path fill="none" stroke="rgb(0,0,0)" paint-order="fill" d="M 189.9044647216797 91.06488800048828 L 199.9044647216797 91.06488800048828" stroke-opacity="1" stroke-linejoin="bevel" stroke-miterlimit="10" stroke-dasharray="" clip-path="url(#hOrvMFvBRonx)"/><path fill="none" stroke="rgb(0,0,0)" paint-order="fill" d="M 311.3836669921875 71.50648498535156 L 321.3836669921875 71.50648498535156" stroke-opacity="1" stroke-linejoin="bevel" stroke-miterlimit="10" stroke-dasharray="" clip-path="url(#hOrvMFvBRonx)"/><path fill="none" stroke="rgb(0,0,0)" paint-order="fill" d="M 362 89.55709075927734 L 372 89.55709075927734" stroke-opacity="1" stroke-linejoin="bevel" stroke-miterlimit="10" stroke-dasharray="" clip-path="url(#hOrvMFvBRonx)"/><path fill="none" stroke="rgb(0,0,0)" paint-order="fill" d="M 412.6163330078125 105.19960021972656 L 422.6163330078125 105.19960021972656" stroke-opacity="1" stroke-linejoin="bevel" stroke-miterlimit="10" stroke-dasharray="" clip-path="url(#hOrvMFvBRonx)"/><path fill="none" stroke="rgb(0,0,0)" paint-order="fill" d="M 534.0955200195312 67.32011413574219 L 544.0955200195312 67.32011413574219" stroke-opacity="1" stroke-linejoin="bevel" stroke-miterlimit="10" stroke-dasharray="" clip-path="url(#hOrvMFvBRonx)"/><path fill="none" stroke="rgb(0,0,0)" paint-order="fill" d="M 584.7118530273438 71.965087890625 L 594.7118530273438 71.965087890625" stroke-opacity="1" stroke-linejoin="bevel" stroke-miterlimit="10" stroke-dasharray="" clip-path="url(#hOrvMFvBRonx)"/><path fill="none" stroke="rgb(0,0,0)" paint-order="fill" d="M 635.3281860351562 125.33216094970703 L 645.3281860351562 125.33216094970703" stroke-opacity="1" stroke-linejoin="bevel" stroke-miterlimit="10" stroke-dasharray="" clip-path="url(#hOrvMFvBRonx)"/><path fill="none" stroke="rgb(0,0,0)" paint-order="fill" d="M 98.67180633544922 30.631057739257812 L 88.67180633544922 30.631057739257812" stroke-opacity="1" stroke-linejoin="bevel" stroke-miterlimit="10" stroke-dasharray="" clip-path="url(#hOrvMFvBRonx)"/><path fill="none" stroke="rgb(0,0,0)" paint-order="fill" d="M 149.2881317138672 59.45648193359375 L 139.2881317138672 59.45648193359375" stroke-opacity="1" stroke-linejoin="bevel" stroke-miterlimit="10" stroke-dasharray="" clip-path="url(#hOrvMFvBRonx)"/><path fill="none" stroke="rgb(0,0,0)" paint-order="fill" d="M 199.9044647216797 55.17510986328125 L 189.9044647216797 55.17510986328125" stroke-opacity="1" stroke-linejoin="bevel" stroke-miterlimit="10" stroke-dasharray="" clip-path="url(#hOrvMFvBRonx)"/><path fill="none" stroke="rgb(0,0,0)" paint-order="fill" d="M 321.3836669921875 28.53351402282715 L 311.3836669921875 28.53351402282715" stroke-opacity="1" stroke-linejoin="bevel" stroke-miterlimit="10" stroke-dasharray="" clip-path="url(#hOrvMFvBRonx)"/><path fill="none" stroke="rgb(0,0,0)" paint-order="fill" d="M 372 52.48291015625 L 362 52.48291015625" stroke-opacity="1" stroke-linejoin="bevel" stroke-miterlimit="10" stroke-dasharray="" clip-path="url(#hOrvMFvBRonx)"/><path fill="none" stroke="rgb(0,0,0)" paint-order="fill" d="M 422.6163330078125 63.720401763916016 L 412.6163330078125 63.720401763916016" stroke-opacity="1" stroke-linejoin="bevel" stroke-miterlimit="10" stroke-dasharray="" clip-path="url(#hOrvMFvBRonx)"/><path fill="none" stroke="rgb(0,0,0)" paint-order="fill" d="M 544.0955200195312 28.519882202148438 L 534.0955200195312 28.519882202148438" stroke-opacity="1" stroke-linejoin="bevel" stroke-miterlimit="10" stroke-dasharray="" clip-path="url(#hOrvMFvBRonx)"/><path fill="none" stroke="rgb(0,0,0)" paint-order="fill" d="M 594.7118530273438 34.79491424560547 L 584.7118530273438 34.79491424560547" stroke-opacity="1" stroke-linejoin="bevel" stroke-miterlimit="10" stroke-dasharray="" clip-path="url(#hOrvMFvBRonx)"/><path fill="none" stroke="rgb(0,0,0)" paint-order="fill" d="M 645.3281860351562 83.06784057617188 L 635.3281860351562 83.06784057617188" stroke-opacity="1" stroke-linejoin="bevel" stroke-miterlimit="10" stroke-dasharray="" clip-path="url(#hOrvMFvBRonx)"/></svg>