<svg version="1.1" xmlns="http://www.w3.org/2000/svg" xmlns:xlink="http://www.w3.org/1999/xlink" width="700" height="350"><defs><clipPath id="TlutDSQRHchB"><path fill="none" stroke="none" d="M 38.5 5.5 L 695.5 5.5 L 695.5 194.5 L 38.5 194.5 L 38.5 5.5"/></clipPath><clipPath id="rIsNnMGLsUEi"><path fill="none" stroke="none" d="M 38.5 5.5 L 695.5 5.5 L 695.5 194.5 L 38.5 194.5 L 38.5 5.5"/></clipPath><clipPath id="lBGxvmLmMomk"><path fill="none" stroke="none" d="M 38.5 5.5 L 695.5 5.5 L 695.5 194.5 L 38.5 194.5 L 38.5 5.5"/></clipPath><clipPath id="XzcqCoWEVVTc"><path fill="none" stroke="none" d="M 38.5 5.5 L 695.5 5.5 L 695.5 194.5 L 38.5 194.5 L 38.5 5.5"/></clipPath></defs><path fill="none" stroke="rgb(229,229,229)" paint-order="fill" d="M 38.5 5.5 L 695.5 5.5 L 695.5 194.5 L 38.5 194.5 L 38.5 5.5" stroke-opacity="1" stroke-linejoin="bevel" stroke-miterlimit="10" stroke-dasharray=""/><path fill="none" stroke="rgb(229,229,229)" paint-order="fill" d="M 38.5 163.5 L 695.5 163.5 M 38.5 131.5 L 695.5 131.5 M 38.5 100.5 L 695.5 100.5 M 38.5 68.5 L 695.5 68.5 M 38.5 37.5 L 695.5 37.5" stroke-opacity="1" stroke-linejoin="bevel" stroke-miterlimit="10" stroke-dasharray="" clip-path="url(#rIsNnMGLsUEi)"/><path fill="none" stroke="none"/><path fill="rgb(153,213,148)" stroke="none" paint-order="stroke" d="M 70.89445495605469 50.22999954223633 L 116.44915771484375 50.22999954223633 L 116.44915771484375 194.5 L 70.89445495605469 194.5 L 70.89445495605469 50.22999954223633" fill-opacity="1" clip-path="url(#lBGxvmLmMomk)"/><path fill="none" stroke="rgb(255,255,255)" paint-order="fill" d="M 70.89445495605469 50.22999954223633 L 116.44915771484375 50.22999954223633 L 116.44915771484375 194.5 L 70.89445495605469 194.5 L 70.89445495605469 50.22999954223633" stroke-opacity="1" stroke-linejoin="bevel" stroke-miterlimit="10" stroke-dasharray="" clip-path="url(#lBGxvmLmMomk)"/><path fill="rgb(255,255,191)" stroke="none" paint-order="stroke" d="M 121.51078033447266 69.33999633789062 L 167.0654754638672 69.33999633789062 L 167.0654754638672 194.5 L 121.51078033447266 194.5 L 121.51078033447266 69.33999633789062" fill-opacity="1" clip-path="url(#lBGxvmLmMomk)"/><path fill="none" stroke="rgb(255,255,255)" paint-order="fill" d="M 121.51078033447266 69.33999633789062 L 167.0654754638672 69.33999633789062 L 167.0654754638672 194.5 L 121.51078033447266 194.5 L 121.51078033447266 69.33999633789062" stroke-opacity="1" stroke-linejoin="bevel" stroke-miterlimit="10" stroke-dasharray="" clip-path="url(#lBGxvmLmMomk)"/><path fill="rgb(252,141,89)" stroke="none" paint-order="stroke" d="M 172.1271209716797 85.93000030517578 L 217.6818084716797 85.93000030517578 L 217.6818084716797 194.5 L 172.1271209716797 194.5 L 172.1271209716797 85.93000030517578" fill-opacity="1" clip-path="url(#lBGxvmLmMomk)"/><path fill="none" stroke="rgb(255,255,255)" paint-order="fill" d="M 172.1271209716797 85.93000030517578 L 217.6818084716797 85.93000030517578 L 217.6818084716797 194.5 L 172.1271209716797 194.5 L 172.1271209716797 85.93000030517578" stroke-opacity="1" stroke-linejoin="bevel" stroke-miterlimit="10" stroke-dasharray="" clip-path="url(#lBGxvmLmMomk)"/><path fill="rgb(153,213,148)" stroke="none" paint-order="stroke" d="M 293.6063232421875 50.439998626708984 L 339.1610107421875 50.439998626708984 L 339.1610107421875 194.5 L 293.6063232421875 194.5 L 293.6063232421875 50.439998626708984" fill-opacity="1" clip-path="url(#lBGxvmLmMomk)"/><path fill="none" stroke="rgb(255,255,255)" paint-order="fill" d="M 293.6063232421875 50.439998626708984 L 339.1610107421875 50.439998626708984 L 339.1610107421875 194.5 L 293.6063232421875 194.5 L 293.6063232421875 50.439998626708984" stroke-opacity="1" stroke-linejoin="bevel" stroke-miterlimit="10" stroke-dasharray="" clip-path="url(#lBGxvmLmMomk)"/><path fill="rgb(255,255,191)" stroke="none" paint-order="stroke" d="M 344.22265625 63.040000915527344 L 389.77734375 63.040000915527344 L 389.77734375 194.5 L 344.22265625 194.5 L 344.22265625 63.040000915527344" fill-opacity="1" clip-path="url(#lBGxvmLmMomk)"/><path fill="none" stroke="rgb(255,255,255)" paint-order="fill" d="M 344.22265625 63.040000915527344 L 389.77734375 63.040000915527344 L 389.77734375 194.5 L 344.22265625 194.5 L 344.22265625 63.040000915527344" stroke-opacity="1" stroke-linejoin="bevel" stroke-miterlimit="10" stroke-dasharray="" clip-path="url(#lBGxvmLmMomk)"/><path fill="rgb(252,141,89)" stroke="none" paint-order="stroke" d="M 394.8389892578125 92.0199966430664 L 440.3936767578125 92.0199966430664 L 440.3936767578125 194.5 L 394.8389892578125 194.5 L 394.8389892578125 92.0199966430664" fill-opacity="1" clip-path="url(#lBGxvmLmMomk)"/><path fill="none" stroke="rgb(255,255,255)" paint-order="fill" d="M 394.8389892578125 92.0199966430664 L 440.3936767578125 92.0199966430664 L 440.3936767578125 194.5 L 394.8389892578125 194.5 L 394.8389892578125 92.0199966430664" stroke-opacity="1" stroke-linejoin="bevel" stroke-miterlimit="10" stroke-dasharray="" clip-path="url(#lBGxvmLmMomk)"/><path fill="rgb(153,213,148)" stroke="none" paint-order="stroke" d="M 516.3181762695312 49.18000030517578 L 561.8728637695312 49.18000030517578 L 561.8728637695312 194.5 L 516.3181762695312 194.5 L 516.3181762695312 49.18000030517578" fill-opacity="1" clip-path="url(#lBGxvmLmMomk)"/><path fill="none" stroke="rgb(255,255,255)" paint-order="fill" d="M 516.3181762695312 49.18000030517578 L 561.8728637695312 49.18000030517578 L 561.8728637695312 194.5 L 516.3181762695312 194.5 L 516.3181762695312 49.18000030517578" stroke-opacity="1" stroke-linejoin="bevel" stroke-miterlimit="10" stroke-dasharray="" clip-path="url(#lBGxvmLmMomk)"/><path fill="rgb(255,255,191)" stroke="none" paint-order="stroke" d="M 566.9345092773438 72.48999786376953 L 612.4891967773438 72.48999786376953 L 612.4891967773438 194.5 L 566.9345092773438 194.5 L 566.9345092773438 72.48999786376953" fill-opacity="1" clip-path="url(#lBGxvmLmMomk)"/><path fill="none" stroke="rgb(255,255,255)" paint-order="fill" d="M 566.9345092773438 72.48999786376953 L 612.4891967773438 72.48999786376953 L 612.4891967773438 194.5 L 566.9345092773438 194.5 L 566.9345092773438 72.48999786376953" stroke-opacity="1" stroke-linejoin="bevel" stroke-miterlimit="10" stroke-dasharray="" clip-path="url(#lBGxvmLmMomk)"/><path fill="rgb(252,141,89)" stroke="none" paint-order="stroke" d="M 617.5508422851562 83.83000183105469 L 663.1055297851562 83.83000183105469 L 663.1055297851562 194.5 L 617.5508422851562 194.5 L 617.5508422851562 83.83000183105469" fill-opacity="1" clip-path="url(#lBGxvmLmMomk)"/><path fill="none" stroke="rgb(255,255,255)" paint-order="fill" d="M 617.5508422851562 83.83000183105469 L 663.1055297851562 83.83000183105469 L 663.1055297851562 194.5 L 617.5508422851562 194.5 L 617.5508422851562 83.83000183105469" stroke-opacity="1" stroke-linejoin="bevel" stroke-miterlimit="10" stroke-dasharray="" clip-path="url(#lBGxvmLmMomk)"/><path fill="none" stroke="rgb(0,0,0)" paint-order="fill" d="M 38.5 194.5 L 695.5 194.5" stroke-opacity="1" stroke-linejoin="bevel" stroke-miterlimit="10" stroke-dasharray=""/><path fill="none" stroke="rgb(0,0,0)" paint-order="fill" d="M 93.5 200.5 L 93.5 192.5 M 144.5 200.5 L 144.5 192.5 M 194.5 200.5 L 194.5 192.5 M 316.5 200.5 L 316.5 192.5 M 367.5 200.5 L 367.5 192.5 M 417.5 200.5 L 417.5 192.5 M 539.5 200.5 L 539.5 192.5 M 589.5 200.5 L 589.5 192.5 M 640.5 200.5 L 640.5 192.5" stroke-opacity="1" stroke-linejoin="bevel" stroke-miterlimit="10" stroke-dasharray=""/><path fill="none" stroke="rgb(0,0,0)" paint-order="fill" d="" stroke-opacity="1" stroke-linejoin="bevel" stroke-miterlimit="10" stroke-dasharray=""/><text fill="rgb(68,68,68)" stroke="none" font-family="helvetica" font-size="15px" font-style="normal" font-weight="normal" text-decoration="normal" x="-10.411529541015625" y="210" text-anchor="start" dominant-baseline="alphabetic" transform="matrix(0.5403023058681398, -0.8414709848078965, 0.8414709848078965, 0.5403023058681398, -129.17068735511253, 173.13939893045242)" fill-opacity="1">Attention_ViT</text><text fill="rgb(68,68,68)" stroke="none" font-family="helvetica" font-size="15px" font-style="normal" font-weight="normal" text-decoration="normal" x="17.63813018798828" y="210" text-anchor="start" dominant-baseline="alphabetic" transform="matrix(0.5403023058681398, -0.8414709848078965, 0.8414709848078965, 0.5403023058681398, -105.90247929322584, 215.7315680939867)" fill-opacity="1">DTD_ResNet152</text><text fill="rgb(68,68,68)" stroke="none" font-family="helvetica" font-size="15px" font-style="normal" font-weight="normal" text-decoration="normal" x="130.17113494873047" y="210" text-anchor="start" dominant-baseline="alphabetic" transform="matrix(0.5403023058681398, -0.8414709848078965, 0.8414709848078965, 0.5403023058681398, -82.63426772412407, 258.3237436774351)" fill-opacity="1">LRP_ViT</text><text fill="rgb(68,68,68)" stroke="none" font-family="helvetica" font-size="15px" font-style="normal" font-weight="normal" text-decoration="normal" x="212.30033111572266" y="210" text-anchor="start" dominant-baseline="alphabetic" transform="matrix(0.5403023058681398, -0.8414709848078965, 0.8414709848078965, 0.5403023058681398, -26.790558555393773, 360.544967645677)" fill-opacity="1">Attention_ViT</text><text fill="rgb(68,68,68)" stroke="none" font-family="helvetica" font-size="15px" font-style="normal" font-weight="normal" text-decoration="normal" x="240.3499984741211" y="210" text-anchor="start" dominant-baseline="alphabetic" transform="matrix(0.5403023058681398, -0.8414709848078965, 0.8414709848078965, 0.5403023058681398, -3.522346986292007, 403.1371432291254)" fill-opacity="1">DTD_ResNet152</text><text fill="rgb(68,68,68)" stroke="none" font-family="helvetica" font-size="15px" font-style="normal" font-weight="normal" text-decoration="normal" x="352.8830032348633" y="210" text-anchor="start" dominant-baseline="alphabetic" transform="matrix(0.5403023058681398, -0.8414709848078965, 0.8414709848078965, 0.5403023058681398, 19.74586458280976, 445.72931881257387)" fill-opacity="1">LRP_ViT</text><text fill="rgb(68,68,68)" stroke="none" font-family="helvetica" font-size="15px" font-style="normal" font-weight="normal" text-decoration="normal" x="435.0121841430664" y="210" text-anchor="start" dominant-baseline="alphabetic" transform="matrix(0.5403023058681398, -0.8414709848078965, 0.8414709848078965, 0.5403023058681398, 75.58956673710986, 547.9505299409875)" fill-opacity="1">Attention_ViT</text><text fill="rgb(68,68,68)" stroke="none" font-family="helvetica" font-size="15px" font-style="normal" font-weight="normal" text-decoration="normal" x="463.06185150146484" y="210" text-anchor="start" dominant-baseline="alphabetic" transform="matrix(0.5403023058681398, -0.8414709848078965, 0.8414709848078965, 0.5403023058681398, 98.85777830621169, 590.5427055244359)" fill-opacity="1">DTD_ResNet152</text><text fill="rgb(68,68,68)" stroke="none" font-family="helvetica" font-size="15px" font-style="normal" font-weight="normal" text-decoration="normal" x="575.594856262207" y="210" text-anchor="start" dominant-baseline="alphabetic" transform="matrix(0.5403023058681398, -0.8414709848078965, 0.8414709848078965, 0.5403023058681398, 122.1259898753134, 633.1348811078842)" fill-opacity="1">LRP_ViT</text><text fill="rgb(128,128,128)" stroke="none" font-family="helvetica" font-size="15px" font-style="normal" font-weight="bold" text-decoration="normal" x="108.33813095092773" y="342.8770075231255" text-anchor="start" dominant-baseline="alphabetic" transform="matrix(1, 0, 0, 1, 0.5, 0.5)" fill-opacity="1">Expert 1</text><text fill="rgb(128,128,128)" stroke="none" font-family="helvetica" font-size="15px" font-style="normal" font-weight="bold" text-decoration="normal" x="331.04999923706055" y="342.8770075231255" text-anchor="start" dominant-baseline="alphabetic" transform="matrix(1, 0, 0, 1, 0.5, 0.5)" fill-opacity="1">Expert 2</text><text fill="rgb(128,128,128)" stroke="none" font-family="helvetica" font-size="15px" font-style="normal" font-weight="bold" text-decoration="normal" x="553.7618522644043" y="342.8770075231255" text-anchor="start" dominant-baseline="alphabetic" transform="matrix(1, 0, 0, 1, 0.5, 0.5)" fill-opacity="1">Expert 3</text><path fill="none" stroke="rgb(211,211,211)" paint-order="fill" d="M 255.5 338.5 L 255.5 197.5 M 478.5 338.5 L 478.5 197.5" stroke-opacity="1" stroke-linejoin="bevel" stroke-miterlimit="10" stroke-dasharray=""/><path fill="none" stroke="rgb(0,0,0)" paint-order="fill" d="M 38.5 194.5 L 38.5 5.5" stroke-opacity="1" stroke-linejoin="bevel" stroke-miterlimit="10" stroke-dasharray=""/><path fill="none" stroke="rgb(0,0,0)" paint-order="fill" d="M 32.5 194.5 L 40.5 194.5 M 32.5 163.5 L 40.5 163.5 M 32.5 131.5 L 40.5 131.5 M 32.5 100.5 L 40.5 100.5 M 32.5 68.5 L 40.5 68.5 M 32.5 37.5 L 40.5 37.5 M 32.5 5.5 L 40.5 5.5" stroke-opacity="1" stroke-linejoin="bevel" stroke-miterlimit="10" stroke-dasharray=""/><path fill="none" stroke="rgb(0,0,0)" paint-order="fill" d="M 34.5 194.5 L 38.5 194.5 M 34.5 188.5 L 38.5 188.5 M 34.5 181.5 L 38.5 181.5 M 34.5 175.5 L 38.5 175.5 M 34.5 169.5 L 38.5 169.5 M 34.5 163.5 L 38.5 163.5 M 34.5 156.5 L 38.5 156.5 M 34.5 150.5 L 38.5 150.5 M 34.5 144.5 L 38.5 144.5 M 34.5 137.5 L 38.5 137.5 M 34.5 131.5 L 38.5 131.5 M 34.5 125.5 L 38.5 125.5 M 34.5 118.5 L 38.5 118.5 M 34.5 112.5 L 38.5 112.5 M 34.5 106.5 L 38.5 106.5 M 34.5 100.5 L 38.5 100.5 M 34.5 93.5 L 38.5 93.5 M 34.5 87.5 L 38.5 87.5 M 34.5 81.5 L 38.5 81.5 M 34.5 74.5 L 38.5 74.5 M 34.5 68.5 L 38.5 68.5 M 34.5 62.5 L 38.5 62.5 M 34.5 55.5 L 38.5 55.5 M 34.5 49.5 L 38.5 49.5 M 34.5 43.5 L 38.5 43.5 M 34.5 37.5 L 38.5 37.5 M 34.5 30.5 L 38.5 30.5 M 34.5 24.5 L 38.5 24.5 M 34.5 18.5 L 38.5 18.5 M 34.5 11.5 L 38.5 11.5 M 34.5 5.5 L 38.5 5.5" stroke-opacity="1" stroke-linejoin="bevel" stroke-miterlimit="10" stroke-dasharray=""/><text fill="rgb(68,68,68)" stroke="none" font-family="helvetica" font-size="15px" font-style="normal" font-weight="normal" text-decoration="normal" x="17.449999809265137" y="199.5" text-anchor="start" dominant-baseline="alphabetic" transform="matrix(1, 0, 0, 1, 0.5, 0.5)" fill-opacity="1">0</text><text fill="rgb(68,68,68)" stroke="none" font-family="helvetica" font-size="15px" font-style="normal" font-weight="normal" text-decoration="normal" x="3.133333206176758" y="168" text-anchor="start" dominant-baseline="alphabetic" transform="matrix(1, 0, 0, 1, 0.5, 0.5)" fill-opacity="1">0.5</text><text fill="rgb(68,68,68)" stroke="none" font-family="helvetica" font-size="15px" font-style="normal" font-weight="normal" text-decoration="normal" x="17.449999809265137" y="136.5" text-anchor="start" dominant-baseline="alphabetic" transform="matrix(1, 0, 0, 1, 0.5, 0.5)" fill-opacity="1">1</text><text fill="rgb(68,68,68)" stroke="none" font-family="helvetica" font-size="15px" font-style="normal" font-weight="normal" text-decoration="normal" x="3.133333206176758" y="105" text-anchor="start" dominant-baseline="alphabetic" transform="matrix(1, 0, 0, 1, 0.5, 0.5)" fill-opacity="1">1.5</text><text fill="rgb(68,68,68)" stroke="none" font-family="helvetica" font-size="15px" font-style="normal" font-weight="normal" text-decoration="normal" x="17.449999809265137" y="73.5" text-anchor="start" dominant-baseline="alphabetic" transform="matrix(1, 0, 0, 1, 0.5, 0.5)" fill-opacity="1">2</text><text fill="rgb(68,68,68)" stroke="none" font-family="helvetica" font-size="15px" font-style="normal" font-weight="normal" text-decoration="normal" x="3.133333206176758" y="42" text-anchor="start" dominant-baseline="alphabetic" transform="matrix(1, 0, 0, 1, 0.5, 0.5)" fill-opacity="1">2.5</text><text fill="rgb(68,68,68)" stroke="none" font-family="helvetica" font-size="15px" font-style="normal" font-weight="normal" text-decoration="normal" x="17.449999809265137" y="11" text-anchor="start" dominant-baseline="alphabetic" transform="matrix(1, 0, 0, 1, 0.5, 0.5)" fill-opacity="1">3</text><path fill="none" stroke="rgb(0,0,0)" paint-order="fill" d="M 93.67180633544922 69.52584838867188 L 93.67180633544922 30.93415069580078" stroke-opacity="1" stroke-linejoin="bevel" stroke-miterlimit="10" stroke-dasharray="" clip-path="url(#XzcqCoWEVVTc)"/><path fill="none" stroke="rgb(0,0,0)" paint-order="fill" d="M 144.2881317138672 89.49440002441406 L 144.2881317138672 49.18560028076172" stroke-opacity="1" stroke-linejoin="bevel" stroke-miterlimit="10" stroke-dasharray="" clip-path="url(#XzcqCoWEVVTc)"/><path fill="none" stroke="rgb(0,0,0)" paint-order="fill" d="M 194.9044647216797 104.41384887695312 L 194.9044647216797 67.44615173339844" stroke-opacity="1" stroke-linejoin="bevel" stroke-miterlimit="10" stroke-dasharray="" clip-path="url(#XzcqCoWEVVTc)"/><path fill="none" stroke="rgb(0,0,0)" paint-order="fill" d="M 316.3836669921875 68.431396484375 L 316.3836669921875 32.44860076904297" stroke-opacity="1" stroke-linejoin="bevel" stroke-miterlimit="10" stroke-dasharray="" clip-path="url(#XzcqCoWEVVTc)"/><path fill="none" stroke="rgb(0,0,0)" paint-order="fill" d="M 367 80.44339752197266 L 367 45.636600494384766" stroke-opacity="1" stroke-linejoin="bevel" stroke-miterlimit="10" stroke-dasharray="" clip-path="url(#XzcqCoWEVVTc)"/><path fill="none" stroke="rgb(0,0,0)" paint-order="fill" d="M 417.6163330078125 112.40959930419922 L 417.6163330078125 71.63040161132812" stroke-opacity="1" stroke-linejoin="bevel" stroke-miterlimit="10" stroke-dasharray="" clip-path="url(#XzcqCoWEVVTc)"/><path fill="none" stroke="rgb(0,0,0)" paint-order="fill" d="M 539.0955200195312 68.05760192871094 L 539.0955200195312 30.302400588989258" stroke-opacity="1" stroke-linejoin="bevel" stroke-miterlimit="10" stroke-dasharray="" clip-path="url(#XzcqCoWEVVTc)"/><path fill="none" stroke="rgb(0,0,0)" paint-order="fill" d="M 589.7118530273438 93.04865264892578 L 589.7118530273438 51.93135070800781" stroke-opacity="1" stroke-linejoin="bevel" stroke-miterlimit="10" stroke-dasharray="" clip-path="url(#XzcqCoWEVVTc)"/><path fill="none" stroke="rgb(0,0,0)" paint-order="fill" d="M 640.3281860351562 102.43984985351562 L 640.3281860351562 65.22015380859375" stroke-opacity="1" stroke-linejoin="bevel" stroke-miterlimit="10" stroke-dasharray="" clip-path="url(#XzcqCoWEVVTc)"/><path fill="none" stroke="rgb(0,0,0)" paint-order="fill" d="M 88.67180633544922 69.52584838867188 L 98.67180633544922 69.52584838867188" stroke-opacity="0.5019607843137255" stroke-linejoin="bevel" stroke-miterlimit="10" stroke-dasharray="" clip-path="url(#XzcqCoWEVVTc)"/><path fill="none" stroke="rgb(0,0,0)" paint-order="fill" d="M 139.2881317138672 89.49440002441406 L 149.2881317138672 89.49440002441406" stroke-opacity="0.5019607843137255" stroke-linejoin="bevel" stroke-miterlimit="10" stroke-dasharray="" clip-path="url(#XzcqCoWEVVTc)"/><path fill="none" stroke="rgb(0,0,0)" paint-order="fill" d="M 189.9044647216797 104.41384887695312 L 199.9044647216797 104.41384887695312" stroke-opacity="0.5019607843137255" stroke-linejoin="bevel" stroke-miterlimit="10" stroke-dasharray="" clip-path="url(#XzcqCoWEVVTc)"/><path fill="none" stroke="rgb(0,0,0)" paint-order="fill" d="M 311.3836669921875 68.431396484375 L 321.3836669921875 68.431396484375" stroke-opacity="0.5019607843137255" stroke-linejoin="bevel" stroke-miterlimit="10" stroke-dasharray="" clip-path="url(#XzcqCoWEVVTc)"/><path fill="none" stroke="rgb(0,0,0)" paint-order="fill" d="M 362 80.44339752197266 L 372 80.44339752197266" stroke-opacity="0.5019607843137255" stroke-linejoin="bevel" stroke-miterlimit="10" stroke-dasharray="" clip-path="url(#XzcqCoWEVVTc)"/><path fill="none" stroke="rgb(0,0,0)" paint-order="fill" d="M 412.6163330078125 112.40959930419922 L 422.6163330078125 112.40959930419922" stroke-opacity="0.5019607843137255" stroke-linejoin="bevel" stroke-miterlimit="10" stroke-dasharray="" clip-path="url(#XzcqCoWEVVTc)"/><path fill="none" stroke="rgb(0,0,0)" paint-order="fill" d="M 534.0955200195312 68.05760192871094 L 544.0955200195312 68.05760192871094" stroke-opacity="0.5019607843137255" stroke-linejoin="bevel" stroke-miterlimit="10" stroke-dasharray="" clip-path="url(#XzcqCoWEVVTc)"/><path fill="none" stroke="rgb(0,0,0)" paint-order="fill" d="M 584.7118530273438 93.04865264892578 L 594.7118530273438 93.04865264892578" stroke-opacity="0.5019607843137255" stroke-linejoin="bevel" stroke-miterlimit="10" stroke-dasharray="" clip-path="url(#XzcqCoWEVVTc)"/><path fill="none" stroke="rgb(0,0,0)" paint-order="fill" d="M 635.3281860351562 102.43984985351562 L 645.3281860351562 102.43984985351562" stroke-opacity="0.5019607843137255" stroke-linejoin="bevel" stroke-miterlimit="10" stroke-dasharray="" clip-path="url(#XzcqCoWEVVTc)"/><path fill="none" stroke="rgb(0,0,0)" paint-order="fill" d="M 98.67180633544922 30.93415069580078 L 88.67180633544922 30.93415069580078" stroke-opacity="0.5019607843137255" stroke-linejoin="bevel" stroke-miterlimit="10" stroke-dasharray="" clip-path="url(#XzcqCoWEVVTc)"/><path fill="none" stroke="rgb(0,0,0)" paint-order="fill" d="M 149.2881317138672 49.18560028076172 L 139.2881317138672 49.18560028076172" stroke-opacity="0.5019607843137255" stroke-linejoin="bevel" stroke-miterlimit="10" stroke-dasharray="" clip-path="url(#XzcqCoWEVVTc)"/><path fill="none" stroke="rgb(0,0,0)" paint-order="fill" d="M 199.9044647216797 67.44615173339844 L 189.9044647216797 67.44615173339844" stroke-opacity="0.5019607843137255" stroke-linejoin="bevel" stroke-miterlimit="10" stroke-dasharray="" clip-path="url(#XzcqCoWEVVTc)"/><path fill="none" stroke="rgb(0,0,0)" paint-order="fill" d="M 321.3836669921875 32.44860076904297 L 311.3836669921875 32.44860076904297" stroke-opacity="0.5019607843137255" stroke-linejoin="bevel" stroke-miterlimit="10" stroke-dasharray="" clip-path="url(#XzcqCoWEVVTc)"/><path fill="none" stroke="rgb(0,0,0)" paint-order="fill" d="M 372 45.636600494384766 L 362 45.636600494384766" stroke-opacity="0.5019607843137255" stroke-linejoin="bevel" stroke-miterlimit="10" stroke-dasharray="" clip-path="url(#XzcqCoWEVVTc)"/><path fill="none" stroke="rgb(0,0,0)" paint-order="fill" d="M 422.6163330078125 71.63040161132812 L 412.6163330078125 71.63040161132812" stroke-opacity="0.5019607843137255" stroke-linejoin="bevel" stroke-miterlimit="10" stroke-dasharray="" clip-path="url(#XzcqCoWEVVTc)"/><path fill="none" stroke="rgb(0,0,0)" paint-order="fill" d="M 544.0955200195312 30.302400588989258 L 534.0955200195312 30.302400588989258" stroke-opacity="0.5019607843137255" stroke-linejoin="bevel" stroke-miterlimit="10" stroke-dasharray="" clip-path="url(#XzcqCoWEVVTc)"/><path fill="none" stroke="rgb(0,0,0)" paint-order="fill" d="M 594.7118530273438 51.93135070800781 L 584.7118530273438 51.93135070800781" stroke-opacity="0.5019607843137255" stroke-linejoin="bevel" stroke-miterlimit="10" stroke-dasharray="" clip-path="url(#XzcqCoWEVVTc)"/><path fill="none" stroke="rgb(0,0,0)" paint-order="fill" d="M 645.3281860351562 65.22015380859375 L 635.3281860351562 65.22015380859375" stroke-opacity="0.5019607843137255" stroke-linejoin="bevel" stroke-miterlimit="10" stroke-dasharray="" clip-path="url(#XzcqCoWEVVTc)"/></svg>